<?xml version="1.0" encoding="UTF-8"?>
<svg id="Layer_2" data-name="Layer 2" xmlns="http://www.w3.org/2000/svg" viewBox="0 0 627.35 605.42">
  <defs>
    <style>
      .cls-1 {
        fill: #e50069;
      }
    </style>
  </defs>
  <g id="Layer_2-2" data-name="Layer 2">
    <g>
      <path class="cls-1" d="M147.56,602.23c-42.81-28.29-78.7-66.46-104.24-111C14.98,441.84,0,385.45,0,328.16c0-87.64,34.14-170.04,96.13-232.03S240.52,0,328.16,0c74.97,0,147.3,25.55,205.4,72.24l-100.27,100.27c-.43-.3-.89-.6-1.37-.9-7.17-4.79-14.71-9.08-22.43-12.75-2.07-1.04-3.87-1.86-5.6-2.58-2.15-1.01-4.21-1.87-6.27-2.62-1.84-.77-3.74-1.5-5.79-2.21-.65-.26-1.51-.59-2.54-.89-1.46-.52-3.01-1.02-4.6-1.5-.96-.33-2.05-.69-3.25-1-1.63-.54-3.15-.94-4.52-1.3-.86-.23-1.87-.49-2.98-.74-1.79-.48-3.62-.92-5.43-1.31-.59-.14-1.33-.3-2.16-.45-1.52-.34-3.05-.65-4.55-.9-11.12-2-22.43-3.02-33.63-3.02-58.26,0-112.24,26.37-148.12,72.33-25.97,33.27-39.69,73.2-39.69,115.48,0,23.89,4.44,47.21,13.21,69.34,17.93,45.05,53.31,81.76,96.99,101.74l-102.99,102.99Z"/>
      <polygon class="cls-1" points="517 605.42 517 473.3 384.88 605.42 186.82 605.42 415.25 376.99 263.33 376.99 263.33 376.71 257.13 376.71 257.13 264.88 627.35 264.88 627.35 605.42 517 605.42"/>
    </g>
  </g>
</svg>